<?xml version="1.0" standalone="no"?><!DOCTYPE svg PUBLIC "-//W3C//DTD SVG 1.1//EN" "http://www.w3.org/Graphics/SVG/1.1/DTD/svg11.dtd"><svg t="1650527009540" class="icon" viewBox="0 0 1024 1024" version="1.1" xmlns="http://www.w3.org/2000/svg" p-id="1896" xmlns:xlink="http://www.w3.org/1999/xlink" width="200" height="200"><defs><style type="text/css">@font-face { font-family: feedback-iconfont; src: url("//at.alicdn.com/t/font_1031158_u69w8yhxdu.woff2?t=1630033759944") format("woff2"), url("//at.alicdn.com/t/font_1031158_u69w8yhxdu.woff?t=1630033759944") format("woff"), url("//at.alicdn.com/t/font_1031158_u69w8yhxdu.ttf?t=1630033759944") format("truetype"); }
</style></defs><path d="M145.259199 85.605817a101.823843 101.823843 0 0 1 37.455026 84.105597c1.794253 61.677438-24.446694 119.542089 16.82112 138.157461s89.712637 44.856319 87.918384 76.704305c0 0 48.444824-24.222412 41.043531-52.257611s-39.249279-63.695972-56.070398-86.124132A1033.938142 1033.938142 0 0 1 218.150717 132.256388a112.140796 112.140796 0 0 0-72.891518-46.650571z" p-id="1897" fill="#2c2c2c"></path><path d="M188.321265 140.554807c89.712637-28.708044 153.184328-11.886924 246.709752-52.257611 69.078731-29.829452 198.040646-74.68577 201.853433-59.883185s-93.525424 187.050848-143.988782 222.487339-112.140796 76.704305-117.747836 82.311345 56.070398-11.21408 78.498557-22.428159 67.284478-65.490225 104.739504-89.712637 50.463358-30.053733 74.68577-67.284478 31.847986-58.088932 67.284478-65.490225 16.821119-46.650571-20.409625-61.677438S633.071663-10.835268 593.822384 5.985851c-130.756168 57.191806-281.69768 68.405886-405.501119 134.568956z" p-id="1898" fill="#2c2c2c"></path><path d="M289.247982 354.743728s-18.839654 63.471691 16.821119 39.249279 87.694103-52.481893 117.747836-52.481893a282.146243 282.146243 0 0 0 113.935049-26.016665c58.088932-22.428159 134.568956-20.633907 134.568956-56.070398a35.21221 35.21221 0 0 0-50.463358-31.847986c-13.008332 7.401293-100.926717 35.436492-132.550422 44.856318s-110.346544 63.471691-160.809902 59.883186-39.249279 22.428159-39.249278 22.428159z" p-id="1899" fill="#2c2c2c"></path><path d="M444.450844 327.605655c-3.812787 7.401293-71.097265 84.105597-106.533757 126.943382s-128.961916 153.408609-168.211194 201.853433-71.097265 112.140796-33.642239 147.801569 89.712637 82.087063 85.89985 106.533757-37.455026 35.436492 7.401293 65.265943 58.088932 41.267813 82.311344 26.240947 5.60704-39.249279-20.633906-46.650572-13.008332-39.249279-41.043532-78.498557-69.078731-82.311344-80.29281-110.346544-2.018534-76.704305 46.650571-132.774702 192.433606-222.263058 222.48734-257.923832 93.301143-20.409625 108.328009-82.087063-102.720969 33.642239-102.720969 33.642239z" p-id="1900" fill="#2c2c2c"></path><path d="M214.786493 809.811079a156.997115 156.997115 0 0 1 93.301143-86.124131c71.097265-24.222412 140.175995-61.677438 203.871967-78.498558s233.477138-76.480023 237.289925-31.623704-67.284478 181.219527-84.105597 201.853433-115.953583 72.891518-153.184328 85.89985-65.490225 28.035199-104.739504 39.249279-63.471691 50.463358-95.319676 50.463358 18.615372 26.240946 35.436491 29.829452 43.062066 5.60704 44.856319-3.588506-11.21408-33.642239 30.053733-46.874853 183.01378-57.864651 327.002562 3.812787c0 0 50.463358 29.829452 76.704305 3.812788s-56.29468-54.276145-102.945251-56.070399-125.149129-13.232614-147.577288-9.419826 48.669106-28.035199 84.105597-41.043532 117.747836-97.338211 173.818234-117.747836 78.498557-22.428159 69.078731-46.874853-61.677438-67.284478-91.50689-89.712637-54.276145-41.043531-106.533756-33.642239-231.682885 59.883185-291.566071 78.498558-166.641223 46.874853-198.040646 147.801569z" p-id="1901" fill="#2c2c2c"></path></svg>